# xmcd
#
# Track frame offsets: 
#        150
#        11711
#        24744
#        34641
#        48478
#        61619
#        72319
#        87679
#        104609
#        115703
#        129014
#        144383
#        158635
#        171610
#        182811
#        195390
#        209226
#        220939
#        233447
#        248201
#
# Disc length: 3452 seconds
#
# Revision: 1
# Processed by: cddbd v1.5.1PL0 Copyright (c) Steve Scherf et al.
# Submitted via: ExactAudioCopy v0.95a4
#
DISCID=1d0d7a14
DTITLE=Schlager Medaillons Folge 15 - Seemannsromantik und Lagerfeuert
DTITLE=räume CD2
DYEAR=2004
DGENRE=Country
TTITLE0=Tom Dooley
TTITLE1=Cowboys Traum
TTITLE2=Bonanza
TTITLE3=Ein Bier, ein Bier
TTITLE4=Der Cowboy hat immer ein Mädel
TTITLE5=Jambalaya
TTITLE6=Es hängt ein Pferdehalfter an der Wand
TTITLE7=Tabak und Rum
TTITLE8=Wir spielen Cowboy und Wildwest
TTITLE9=Von den blauen Bergen kommen wir
TTITLE10=Ein Pferd kehrt heim
TTITLE11=Hey Boss ich brauch mehr Geld
TTITLE12=Mein roter Bruder wohnt in Arizona
TTITLE13=Wenn es Nacht wird in Montana
TTITLE14=Lagerfeuer
TTITLE15=Nevada
TTITLE16=Geisterreiter
TTITLE17=Cowboys Heimkehr
TTITLE18=Wir sind ´ne kleine Countryband
TTITLE19=Bei uns in Laramie
EXTD=YEAR: 2004
EXTT0=
EXTT1=
EXTT2=
EXTT3=
EXTT4=
EXTT5=
EXTT6=
EXTT7=
EXTT8=
EXTT9=
EXTT10=
EXTT11=
EXTT12=
EXTT13=
EXTT14=
EXTT15=
EXTT16=
EXTT17=
EXTT18=
EXTT19=
PLAYORDER=
